<svg width="15" height="13" viewBox="0 0 15 13" fill="none" xmlns="http://www.w3.org/2000/svg">
<path d="M2.52195 2.8145C2.49788 2.12235 3.03708 1.48413 3.76599 1.48413H11.2349C11.9638 1.48413 12.503 2.12235 12.4789 2.8145C12.4558 3.47933 12.4858 4.34058 12.7026 5.04278C12.92 5.74722 13.2867 6.19236 13.8872 6.24965V6.89833C13.2867 6.95561 12.92 7.40076 12.7026 8.10519C12.4858 8.8074 12.4558 9.66865 12.4789 10.3335C12.503 11.0256 11.9638 11.6637 11.2349 11.6637H3.76599C3.03708 11.6637 2.49788 11.0255 2.52195 10.3335C2.54511 9.66865 2.51505 8.8074 2.29821 8.10519C2.08087 7.40086 1.71321 6.95561 1.11267 6.89833V6.24965C1.71321 6.19247 2.08087 5.74722 2.29821 5.04278C2.51505 4.34058 2.54501 3.47933 2.52195 2.8145Z" fill="url(#paint0_linear_298_4)"/>
<g filter="url(#filter0_d_298_4)">
<path d="M7.81579 9.31695C8.99584 9.31695 9.70694 8.73916 9.70694 7.78615C9.70694 7.06577 9.19955 6.54425 8.44617 6.46169V6.43167C8.99968 6.34163 9.43403 5.82761 9.43403 5.25357C9.43403 4.43564 8.78828 3.90283 7.80426 3.90283H5.59021V9.31695H7.81579ZM6.45123 4.58945H7.5967C8.2194 4.58945 8.57301 4.86709 8.57301 5.36986C8.57301 5.9064 8.16174 6.20655 7.41604 6.20655H6.45123V4.58945ZM6.45123 8.63033V6.84814H7.58899C8.40388 6.84814 8.8267 7.14828 8.8267 7.73361C8.8267 8.3189 8.41543 8.63033 7.63897 8.63033H6.45123Z" fill="url(#paint1_linear_298_4)"/>
</g>
<defs>
<filter id="filter0_d_298_4" x="5.09889" y="3.53434" width="5.09934" height="6.39676" filterUnits="userSpaceOnUse" color-interpolation-filters="sRGB">
<feFlood flood-opacity="0" result="BackgroundImageFix"/>
<feColorMatrix in="SourceAlpha" type="matrix" values="0 0 0 0 0 0 0 0 0 0 0 0 0 0 0 0 0 0 127 0" result="hardAlpha"/>
<feOffset dy="0.12283"/>
<feGaussianBlur stdDeviation="0.24566"/>
<feColorMatrix type="matrix" values="0 0 0 0 0 0 0 0 0 0 0 0 0 0 0 0 0 0 0.15 0"/>
<feBlend mode="normal" in2="BackgroundImageFix" result="effect1_dropShadow_298_4"/>
<feBlend mode="normal" in="SourceGraphic" in2="effect1_dropShadow_298_4" result="shape"/>
</filter>
<linearGradient id="paint0_linear_298_4" x1="3.01093" y1="1.75354" x2="14.1735" y2="10.6145" gradientUnits="userSpaceOnUse">
<stop stop-color="#9013FE"/>
<stop offset="1" stop-color="#6610F2"/>
</linearGradient>
<linearGradient id="paint1_linear_298_4" x1="5.97973" y1="4.25912" x2="8.47471" y2="8.47888" gradientUnits="userSpaceOnUse">
<stop stop-color="white"/>
<stop offset="1" stop-color="#F1E5FC"/>
</linearGradient>
</defs>
</svg>
