<svg width="23" height="23" viewBox="0 0 23 23" fill="none" xmlns="http://www.w3.org/2000/svg">
<path d="M21.4994 16.4738V19.4846C21.5005 19.7642 21.4431 20.0408 21.331 20.2969C21.2188 20.553 21.0542 20.7829 20.8478 20.9719C20.6415 21.1608 20.3978 21.3047 20.1325 21.3942C19.8672 21.4838 19.5861 21.517 19.3072 21.4919C16.2128 21.1563 13.2404 20.101 10.6289 18.4108C8.19921 16.8699 6.13926 14.8141 4.59534 12.3892C2.89586 9.77099 1.83824 6.79008 1.50816 3.68795C1.48303 3.41042 1.51608 3.13071 1.6052 2.86663C1.69432 2.60254 1.83757 2.35987 2.02581 2.15407C2.21405 1.94826 2.44317 1.78383 2.69858 1.67123C2.95398 1.55864 3.23008 1.50036 3.5093 1.5001H6.52608C7.0141 1.4953 7.48722 1.66778 7.85725 1.98537C8.22727 2.30297 8.46896 2.74401 8.53727 3.22629C8.6646 4.18982 8.90074 5.13587 9.24118 6.04641C9.37648 6.40563 9.40576 6.79602 9.32556 7.17133C9.24536 7.54665 9.05903 7.89115 8.78867 8.16402L7.51156 9.43859C8.94308 11.9512 11.0276 14.0315 13.5451 15.4602L14.8222 14.1856C15.0956 13.9158 15.4408 13.7298 15.8169 13.6498C16.1929 13.5698 16.5841 13.599 16.944 13.734C17.8564 14.0738 18.8043 14.3095 19.7698 14.4365C20.2582 14.5053 20.7044 14.7509 21.0233 15.1265C21.3422 15.5021 21.5116 15.9817 21.4994 16.4738Z" fill="#0097CD" stroke="white" stroke-width="3" stroke-linecap="round" stroke-linejoin="round"/>
</svg>
