<svg width="20" height="19" viewBox="0 0 20 19" fill="none" xmlns="http://www.w3.org/2000/svg">
<path d="M5.62843 3.74108C4.67556 3.76262 3.861 4.38746 3.18475 5.61251C2.47469 6.99145 2.12428 8.52428 2.13042 10.211C2.14272 10.4142 2.16423 10.4327 2.19804 10.2695C2.48392 9.02907 2.78208 8.0595 3.09254 7.35774C3.39684 6.65289 3.73497 6.07421 4.10383 5.62792C4.95221 4.63985 5.68685 4.4798 6.31084 5.14773C6.99326 5.93571 7.35597 7.26541 7.399 9.13064C7.36213 11.6392 7.0332 13.5353 6.41228 14.8249C5.63459 16.3948 4.8354 16.918 4.02391 16.3886C2.91733 15.5052 2.30256 13.5476 2.1796 10.5219C2.13657 10.4172 2.09661 10.4942 2.06587 10.7528C2.00747 11.0667 1.96751 11.4115 1.94292 11.7778C1.8507 13.4214 2.06895 14.8157 2.59457 15.9607C3.1325 17.0473 3.8487 17.5982 4.74319 17.6167C5.70838 17.6013 6.58751 16.9703 7.38361 15.7176C8.17669 14.4094 8.68695 12.815 8.91131 10.9282C8.99433 8.92133 8.72382 7.21308 8.1029 5.80333C7.47582 4.46133 6.6551 3.77186 5.64382 3.73492" fill="#0097CD"/>
<path d="M12.6984 2.99616C12.2035 2.18357 11.2568 1.78651 9.85821 1.81114C8.31205 1.88501 6.80892 2.34671 5.35195 3.19623C5.18287 3.30704 5.17672 3.33782 5.33349 3.2855C6.55072 2.91306 7.53744 2.68529 8.29667 2.60526C9.05897 2.516 9.726 2.51907 10.2977 2.61757C11.5765 2.86073 12.0836 3.41785 11.8163 4.292C11.475 5.27694 10.5068 6.25575 8.91451 7.2284C6.72595 8.45035 4.9216 9.1152 3.49841 9.21985C1.7494 9.33067 0.901016 8.89978 0.953272 7.93022C1.17151 6.52663 2.55474 5.01533 5.10911 3.39323C5.17672 3.30396 5.09066 3.31012 4.85398 3.41169C4.55274 3.51942 4.23613 3.65486 3.90416 3.81799C2.43794 4.55979 1.3375 5.44625 0.612072 6.4743C-0.0580251 7.48387 -0.177905 8.38267 0.252433 9.1645C0.747323 9.99244 1.73403 10.4388 3.21562 10.5034C4.74332 10.5373 6.37862 10.1833 8.12149 9.43224C9.89815 8.4996 11.2414 7.41311 12.1482 6.16958C12.9966 4.95377 13.181 3.89802 12.7076 3.00232" fill="#0097CD"/>
<path d="M16.8788 8.75515C17.3338 7.91792 17.2046 6.89911 16.4823 5.69866C15.6432 4.3936 14.4935 3.32246 13.0304 2.48524C12.849 2.3929 12.8214 2.40213 12.9443 2.51295C13.8757 3.38094 14.5642 4.12581 15.0161 4.74141C15.4741 5.36011 15.8061 5.93873 16.0059 6.48357C16.4362 7.71477 16.2057 8.43194 15.3173 8.63509C14.2937 8.83207 12.9658 8.48119 11.3275 7.58855C9.17885 6.30194 7.70034 5.06769 6.895 3.88881C5.92675 2.42676 5.87449 1.47566 6.73823 1.03551C8.0569 0.518402 10.0549 0.964712 12.7353 2.37135C12.8459 2.38367 12.7998 2.31288 12.5908 2.15898C12.348 1.94967 12.0714 1.74345 11.764 1.53722C10.3899 0.635365 9.07434 0.127496 7.82023 0.0105315C6.61218 -0.0664184 5.77613 0.278317 5.31198 1.04474C4.84166 1.88811 4.94924 2.96849 5.63469 4.2828C6.36936 5.62482 7.49439 6.86521 9.01285 8.001C10.7065 9.07522 12.3203 9.69698 13.848 9.86013C15.3235 9.98635 16.3317 9.62006 16.8665 8.76126" fill="#0097CD"/>
<path d="M13.9894 15.2589C14.9423 15.2374 15.7569 14.6125 16.4331 13.3875C17.1432 12.0085 17.4936 10.4757 17.4874 8.78897C17.4751 8.58583 17.4536 8.56734 17.4198 8.73048C17.1339 9.97093 16.8358 10.9405 16.5253 11.6423C16.221 12.3471 15.8829 12.9258 15.514 13.3721C14.6656 14.3601 13.931 14.5202 13.307 13.8523C12.6246 13.0643 12.2619 11.7346 12.2189 9.86935C12.2557 7.36079 12.5847 5.46474 13.2055 4.17505C13.9832 2.60527 14.7825 2.08201 15.5939 2.61142C16.7005 3.49481 17.3153 5.45242 17.4383 8.47809C17.4813 8.58274 17.5212 8.50577 17.552 8.24721C17.6104 7.9333 17.6504 7.58853 17.6749 7.22224C17.7671 5.57859 17.5489 4.18428 17.0233 3.03926C16.4853 1.95273 15.7691 1.40177 14.8747 1.3833C13.9095 1.39869 13.0304 2.02968 12.2342 3.28243C11.4412 4.59058 10.9309 6.185 10.7065 8.0718C10.6235 10.0787 10.894 11.7869 11.5149 13.1967C12.142 14.5387 12.9627 15.2281 13.974 15.2651" fill="#0097CD"/>
<path d="M2.26523 10.1292C1.8103 10.9665 1.9394 11.9853 2.66176 13.1857C3.50091 14.4908 4.65054 15.562 6.1137 16.3991C6.29503 16.4915 6.32272 16.4823 6.19975 16.3715C5.26837 15.5035 4.57984 14.7586 4.12798 14.143C3.66998 13.5243 3.338 12.9457 3.1382 12.4008C2.70786 11.1696 2.9384 10.4524 3.82675 10.2493C4.85031 10.0523 6.17821 10.4032 7.81657 11.2958C9.96519 12.5824 11.4438 13.8167 12.2491 14.9956C13.2173 16.4576 13.2696 17.4088 12.4059 17.8489C11.0872 18.366 9.08919 17.9197 6.40878 16.513C6.29811 16.5007 6.34421 16.5715 6.55324 16.7254C6.79606 16.9347 7.07273 17.141 7.38011 17.3472C8.75411 18.249 10.0697 18.7569 11.3239 18.8739C12.5319 18.9508 13.368 18.6061 13.8321 17.8396C14.3024 16.9963 14.1948 15.9159 13.5093 14.6016C12.7747 13.2596 11.6497 12.0192 10.1312 10.8834C8.43749 9.80917 6.82375 9.1874 5.29606 9.02426C3.8206 8.89804 2.81238 9.26433 2.27752 10.1231" fill="#0097CD"/>
<path d="M6.91939 16.0038C7.41431 16.8164 8.36103 17.2135 9.75965 17.1888C11.3058 17.1149 12.8089 16.6532 14.2659 15.8037C14.4349 15.6929 14.4411 15.6621 14.2843 15.7145C13.0671 16.0869 12.0804 16.3147 11.3211 16.3947C10.5588 16.484 9.8918 16.4809 9.32006 16.3824C8.04134 16.1392 7.53416 15.5821 7.8016 14.7079C8.14278 13.723 9.11103 12.7442 10.7033 11.7716C12.8919 10.5496 14.6962 9.8847 16.1194 9.7801C17.8684 9.66928 18.7168 10.1002 18.6646 11.0697C18.4525 12.4702 17.0692 13.9816 14.5118 15.6037C14.4442 15.6929 14.5303 15.6867 14.7669 15.5852C15.0682 15.4774 15.3848 15.342 15.7167 15.1789C17.183 14.4371 18.2834 13.5506 19.0088 12.5226C19.6789 11.513 19.7988 10.6142 19.3685 9.83243C18.8736 9.00444 17.8869 8.55809 16.4084 8.49349C14.8807 8.4596 13.2454 8.81357 11.5025 9.56463C9.7258 10.4973 8.38257 11.5838 7.47575 12.8273C6.62739 14.0431 6.44298 15.0989 6.91631 15.9945" fill="#0097CD"/>
</svg>
