<svg width="15" height="14" viewBox="0 0 15 14" fill="none" xmlns="http://www.w3.org/2000/svg">
<path d="M10 12.6667V1.99999C10 1.64637 9.85954 1.30723 9.6095 1.05718C9.35945 0.807132 9.02031 0.666656 8.66669 0.666656H6.00002C5.6464 0.666656 5.30726 0.807132 5.05721 1.05718C4.80716 1.30723 4.66669 1.64637 4.66669 1.99999V12.6667" stroke="#4F46E5" stroke-width="1.33333" stroke-linecap="round" stroke-linejoin="round"/>
<path d="M12.6667 3.33331H2.00002C1.26364 3.33331 0.666687 3.93027 0.666687 4.66665V11.3333C0.666687 12.0697 1.26364 12.6666 2.00002 12.6666H12.6667C13.4031 12.6666 14 12.0697 14 11.3333V4.66665C14 3.93027 13.4031 3.33331 12.6667 3.33331Z" stroke="#4F46E5" stroke-width="1.33333" stroke-linecap="round" stroke-linejoin="round"/>
</svg>
