<svg width="10" height="12" viewBox="0 0 10 12" fill="none" xmlns="http://www.w3.org/2000/svg">
<path d="M4.75 6.25C5.57843 6.25 6.25 5.57843 6.25 4.75C6.25 3.92157 5.57843 3.25 4.75 3.25C3.92157 3.25 3.25 3.92157 3.25 4.75C3.25 5.57843 3.92157 6.25 4.75 6.25Z" stroke="#64748B" stroke-width="1.5" stroke-linecap="round" stroke-linejoin="round"/>
<path d="M8.75 4.75C8.75 7.2465 5.9805 9.8465 5.0505 10.6495C4.96386 10.7146 4.8584 10.7499 4.75 10.7499C4.6416 10.7499 4.53614 10.7146 4.4495 10.6495C3.5195 9.8465 0.75 7.2465 0.75 4.75C0.75 3.68913 1.17143 2.67172 1.92157 1.92157C2.67172 1.17143 3.68913 0.75 4.75 0.75C5.81087 0.75 6.82828 1.17143 7.57843 1.92157C8.32857 2.67172 8.75 3.68913 8.75 4.75Z" stroke="#64748B" stroke-width="1.5" stroke-linecap="round" stroke-linejoin="round"/>
</svg>
