<svg width="12" height="12" viewBox="0 0 12 12" fill="none" xmlns="http://www.w3.org/2000/svg">
<path d="M6.666 8.034C6.76926 8.08142 6.8856 8.09226 6.99585 8.06472C7.10609 8.03718 7.20367 7.97291 7.2725 7.8825L7.45 7.65C7.54315 7.5258 7.66393 7.425 7.80279 7.35557C7.94164 7.28614 8.09475 7.25 8.25 7.25H9.75C10.0152 7.25 10.2696 7.35536 10.4571 7.54289C10.6446 7.73043 10.75 7.98478 10.75 8.25V9.75C10.75 10.0152 10.6446 10.2696 10.4571 10.4571C10.2696 10.6446 10.0152 10.75 9.75 10.75C7.36305 10.75 5.07387 9.80179 3.38604 8.11396C1.69821 6.42613 0.75 4.13695 0.75 1.75C0.75 1.48478 0.855357 1.23043 1.04289 1.04289C1.23043 0.855357 1.48478 0.75 1.75 0.75H3.25C3.51522 0.75 3.76957 0.855357 3.95711 1.04289C4.14464 1.23043 4.25 1.48478 4.25 1.75V3.25C4.25 3.40525 4.21386 3.55836 4.14443 3.69721C4.075 3.83607 3.9742 3.95685 3.85 4.05L3.616 4.2255C3.52421 4.29559 3.45951 4.39529 3.4329 4.50768C3.40628 4.62006 3.41939 4.73819 3.47 4.842C4.15334 6.22993 5.27721 7.3524 6.666 8.034Z" stroke="#64748B" stroke-width="1.5" stroke-linecap="round" stroke-linejoin="round"/>
</svg>
