<svg width="10" height="15" viewBox="0 0 10 15" fill="none" xmlns="http://www.w3.org/2000/svg">
<path d="M6.9847 7.92664L7.9947 13.6106C8.00602 13.6776 7.99663 13.7464 7.96779 13.8078C7.93895 13.8693 7.89204 13.9204 7.83333 13.9545C7.77461 13.9886 7.7069 14.0039 7.63924 13.9984C7.57158 13.993 7.5072 13.967 7.4547 13.924L5.06804 12.1326C4.95282 12.0466 4.81286 12.0001 4.66904 12.0001C4.52522 12.0001 4.38525 12.0466 4.27004 12.1326L1.87937 13.9233C1.82692 13.9663 1.76261 13.9922 1.69503 13.9977C1.62746 14.0031 1.55982 13.9879 1.50115 13.9539C1.44247 13.9199 1.39555 13.8689 1.36665 13.8075C1.33775 13.7462 1.32823 13.6775 1.33937 13.6106L2.3487 7.92664" stroke="#4F46E5" stroke-width="1.33333" stroke-linecap="round" stroke-linejoin="round"/>
<path d="M4.66669 8.66666C6.87583 8.66666 8.66669 6.8758 8.66669 4.66666C8.66669 2.45752 6.87583 0.666656 4.66669 0.666656C2.45755 0.666656 0.666687 2.45752 0.666687 4.66666C0.666687 6.8758 2.45755 8.66666 4.66669 8.66666Z" stroke="#4F46E5" stroke-width="1.33333" stroke-linecap="round" stroke-linejoin="round"/>
</svg>
