<svg width="12" height="12" viewBox="0 0 12 12" fill="none" xmlns="http://www.w3.org/2000/svg">
<path d="M0.289816 6.7101L5.28981 11.7101C5.38492 11.8011 5.49706 11.8725 5.61981 11.9201C5.86328 12.0201 6.13635 12.0201 6.37981 11.9201C6.50257 11.8725 6.61471 11.8011 6.70981 11.7101L11.7098 6.7101C11.8031 6.61686 11.877 6.50618 11.9275 6.38435C11.9779 6.26253 12.0039 6.13196 12.0039 6.0001C12.0039 5.7338 11.8981 5.47841 11.7098 5.2901C11.5215 5.1018 11.2661 4.99601 10.9998 4.99601C10.7335 4.99601 10.4781 5.1018 10.2898 5.2901L6.99981 8.5901L6.99982 1.0001C6.99982 0.734887 6.89446 0.480532 6.70692 0.292996C6.51939 0.10546 6.26503 0.000103449 5.99982 0.000103426C5.7346 0.000103402 5.48025 0.105459 5.29271 0.292996C5.10517 0.480532 4.99982 0.734887 4.99982 1.0001L4.99981 8.5901L1.70981 5.2901C1.61685 5.19637 1.50625 5.12198 1.38439 5.07121C1.26253 5.02044 1.13183 4.9943 0.999816 4.9943C0.867804 4.9943 0.737098 5.02044 0.615239 5.07121C0.49338 5.12198 0.382779 5.19637 0.289816 5.2901C0.196088 5.38307 0.121692 5.49367 0.0709234 5.61553C0.0201547 5.73738 -0.00598282 5.86809 -0.00598283 6.0001C-0.00598284 6.13211 0.0201547 6.26282 0.0709233 6.38468C0.121692 6.50654 0.196088 6.61714 0.289816 6.7101Z" fill="black"/>
</svg>
