<svg width="16" height="16" viewBox="0 0 16 16" fill="none" xmlns="http://www.w3.org/2000/svg">
<path d="M9.55221 3.9847C10.1601 4.10307 10.7188 4.3998 11.1567 4.83691C11.5946 5.27401 11.8919 5.83161 12.0105 6.43833M9.55221 1.5C10.8152 1.64004 11.9929 2.20452 12.892 3.10077C13.7911 3.99702 14.3581 5.17176 14.5 6.43212M13.8776 11.3891V13.2526C13.8783 13.4256 13.8428 13.5968 13.7734 13.7554C13.704 13.9139 13.6021 14.0562 13.4744 14.1731C13.3467 14.2901 13.1959 14.3791 13.0317 14.4345C12.8675 14.4899 12.6935 14.5105 12.5209 14.495C10.6058 14.2873 8.76617 13.6341 7.14989 12.588C5.64615 11.6342 4.37124 10.3618 3.41571 8.86091C2.3639 7.24039 1.70934 5.39538 1.50505 3.47533C1.4895 3.30356 1.50995 3.13043 1.56511 2.96698C1.62027 2.80353 1.70892 2.65333 1.82542 2.52594C1.94193 2.39856 2.08373 2.29679 2.2418 2.2271C2.39987 2.15741 2.57075 2.12134 2.74355 2.12117H4.61065C4.91268 2.11821 5.2055 2.22496 5.43451 2.42153C5.66352 2.6181 5.8131 2.89109 5.85537 3.18959C5.93418 3.78596 6.08033 4.37152 6.29103 4.93509C6.37476 5.15742 6.39288 5.39906 6.34325 5.63135C6.29361 5.86365 6.17829 6.07688 6.01096 6.24577L5.22056 7.03466C6.10653 8.5898 7.39663 9.87743 8.95474 10.7617L9.74514 9.97281C9.91436 9.8058 10.128 9.6907 10.3607 9.64116C10.5935 9.59162 10.8356 9.60971 11.0583 9.69328C11.623 9.90358 12.2097 10.0495 12.8072 10.1281C13.1095 10.1707 13.3856 10.3227 13.583 10.5552C13.7803 10.7877 13.8852 11.0844 13.8776 11.3891Z" stroke="#404040" stroke-width="1.5" stroke-linecap="round" stroke-linejoin="round"/>
</svg>
