<svg width="39" height="37" viewBox="0 0 39 37" fill="none" xmlns="http://www.w3.org/2000/svg">
<path d="M10.9757 7.28523C9.1176 7.32719 7.5292 8.54397 6.21052 10.9296C4.8259 13.6149 4.14259 16.5999 4.15458 19.8846C4.17855 20.2802 4.22051 20.3162 4.28644 19.9985C4.84389 17.5829 5.4253 15.6948 6.0307 14.3282C6.6241 12.9556 7.28344 11.8287 8.00272 10.9596C9.65706 9.03548 11.0896 8.72379 12.3064 10.0245C13.6371 11.559 14.3444 14.1484 14.4283 17.7807C14.3564 22.6658 13.715 26.3581 12.5042 28.8696C10.9877 31.9266 9.42929 32.9455 7.84688 31.9146C5.68904 30.1943 4.49024 26.3821 4.25048 20.49C4.16656 20.2862 4.08864 20.4361 4.0287 20.9396C3.91482 21.5509 3.83689 22.2223 3.78894 22.9356C3.60912 26.1364 4.0347 28.8516 5.05967 31.0814C6.10862 33.1973 7.50522 34.2702 9.24947 34.3062C11.1316 34.2762 12.8459 33.0474 14.3983 30.6079C15.9448 28.0604 16.9398 24.9555 17.3773 21.2812C17.5392 17.3731 17.0117 14.0465 15.8009 11.3012C14.5781 8.68783 12.9777 7.34517 11.0057 7.27325" fill="#F5F5F5"/>
<path d="M24.7619 5.83468C23.7969 4.25227 21.9508 3.47904 19.2235 3.527C16.2085 3.67085 13.2774 4.56995 10.4363 6.22429C10.1066 6.44008 10.0946 6.50002 10.4003 6.39812C12.7739 5.67285 14.698 5.22929 16.1785 5.07345C17.665 4.89962 18.9657 4.90561 20.0806 5.09742C22.5741 5.57095 23.5631 6.65586 23.0417 8.35816C22.3763 10.2762 20.4882 12.1823 17.3833 14.0764C13.1156 16.456 9.59712 17.7507 6.8219 17.9545C3.41132 18.1703 1.75698 17.3312 1.85888 15.4431C2.28445 12.7098 4.98175 9.76675 9.96276 6.60791C10.0946 6.43408 9.92679 6.44607 9.46526 6.64387C8.87784 6.85366 8.26046 7.1174 7.61311 7.43508C4.75398 8.87963 2.60812 10.6059 1.19354 12.6079C-0.113149 14.5739 -0.346915 16.3242 0.492244 17.8467C1.45728 19.459 3.38135 20.3282 6.27046 20.454C9.24947 20.52 12.4383 19.8307 15.8369 18.3681C19.3014 16.5519 21.9208 14.4361 23.689 12.0145C25.3434 9.64687 25.703 7.59092 24.7799 5.84667" fill="#F5F5F5"/>
<path d="M32.9138 17.0495C33.8009 15.4191 33.5491 13.4351 32.1405 11.0974C30.5042 8.55596 28.2624 6.47005 25.4093 4.83968C25.0556 4.65986 25.0017 4.67784 25.2415 4.89363C27.0576 6.58394 28.4003 8.03448 29.2814 9.23328C30.1745 10.4381 30.8219 11.5649 31.2115 12.6259C32.0506 15.0235 31.6011 16.4201 29.8688 16.8157C27.8728 17.1993 25.2834 16.516 22.0886 14.7777C17.8988 12.2722 15.0157 9.86865 13.4453 7.57295C11.5572 4.7258 11.4553 2.87365 13.1396 2.01651C15.711 1.00952 19.6071 1.87865 24.8339 4.6179C25.0496 4.64188 24.9597 4.50402 24.5521 4.20432C24.0786 3.79673 23.5392 3.39513 22.9398 2.99353C20.2604 1.23729 17.695 0.248281 15.2495 0.0205087C12.8938 -0.129341 11.2635 0.541986 10.3584 2.03449C9.44128 3.67685 9.65107 5.78074 10.9877 8.34018C12.4203 10.9536 14.6141 13.3691 17.5751 15.5809C20.8778 17.6728 24.0247 18.8836 27.0037 19.2013C29.8808 19.4471 31.8468 18.7338 32.8898 17.0614" fill="#F5F5F5"/>
<path d="M27.2794 29.7148C29.1376 29.6728 30.726 28.456 32.0446 26.0704C33.4293 23.3851 34.1126 20.4001 34.1006 17.1154C34.0766 16.7198 34.0346 16.6838 33.9687 17.0015C33.4113 19.4171 32.8299 21.3052 32.2245 22.6718C31.6311 24.0444 30.9717 25.1713 30.2524 26.0404C28.5981 27.9645 27.1655 28.2762 25.9487 26.9755C24.6181 25.441 23.9108 22.8516 23.8269 19.2193C23.8988 14.3342 24.5402 10.6419 25.7509 8.13039C27.2674 5.07345 28.8259 4.05447 30.4083 5.08544C32.5661 6.80571 33.7649 10.6179 34.0047 16.51C34.0886 16.7138 34.1665 16.5639 34.2265 16.0604C34.3403 15.4491 34.4183 14.7777 34.4662 14.0644C34.646 10.8636 34.2205 8.14837 33.1955 5.9186C32.1465 3.80272 30.7499 2.7298 29.0057 2.69383C27.1236 2.7238 25.4093 3.95257 23.8568 6.39213C22.3104 8.93958 21.3154 12.0445 20.8778 15.7188C20.716 19.6269 21.2435 22.9535 22.4542 25.6988C23.677 28.3122 25.2774 29.6548 27.2494 29.7268" fill="#F5F5F5"/>
<path d="M5.34139 19.9505C4.45428 21.5809 4.70602 23.5649 6.11461 25.9026C7.75097 28.444 9.99273 30.53 12.8459 32.1603C13.1995 32.3401 13.2535 32.3222 13.0137 32.1064C11.1975 30.4161 9.85487 28.9655 8.97375 27.7667C8.08064 26.5619 7.43329 25.4351 7.04368 24.3741C6.20452 21.9765 6.65407 20.5799 8.38634 20.1843C10.3823 19.8007 12.9717 20.484 16.1665 22.2223C20.3563 24.7278 23.2395 27.1314 24.8099 29.4271C26.698 32.2742 26.7999 34.1264 25.1156 34.9835C22.5442 35.9905 18.6481 35.1214 13.4213 32.3821C13.2055 32.3581 13.2954 32.496 13.703 32.7957C14.1765 33.2033 14.716 33.6049 15.3154 34.0065C17.9947 35.7627 20.5601 36.7517 23.0057 36.9795C25.3613 37.1293 26.9917 36.458 27.8968 34.9655C28.8139 33.3232 28.6041 31.2193 27.2674 28.6598C25.8349 26.0464 23.6411 23.6309 20.68 21.4191C17.3773 19.3272 14.2305 18.1164 11.2515 17.7987C8.37435 17.5529 6.40832 18.2662 5.36536 19.9386" fill="#F5F5F5"/>
<path d="M13.4932 31.1653C14.4583 32.7477 16.3044 33.521 19.0317 33.473C22.0467 33.3291 24.9777 32.43 27.8189 30.7757C28.1485 30.5599 28.1605 30.5 27.8548 30.6019C25.4812 31.3272 23.5571 31.7707 22.0766 31.9266C20.5901 32.1004 19.2894 32.0944 18.1745 31.9026C15.681 31.4291 14.692 30.3441 15.2135 28.6418C15.8788 26.7238 17.7669 24.8177 20.8718 22.9236C25.1396 20.544 28.658 19.2492 31.4333 19.0455C34.8438 18.8297 36.4982 19.6688 36.3963 21.5569C35.9827 24.2842 33.2854 27.2273 28.2984 30.3861C28.1665 30.5599 28.3344 30.5479 28.7959 30.3501C29.3833 30.1403 30.0007 29.8766 30.648 29.5589C33.5072 28.1144 35.653 26.3881 37.0676 24.3861C38.3743 22.4201 38.6081 20.6698 37.7689 19.1474C36.8039 17.535 34.8798 16.6658 31.9967 16.54C29.0177 16.474 25.8289 17.1633 22.4303 18.6259C18.9657 20.4421 16.3464 22.5579 14.5781 24.9795C12.9238 27.3471 12.5642 29.4031 13.4872 31.1473" fill="#F5F5F5"/>
</svg>
