<svg width="72" height="15" viewBox="0 0 72 15" fill="none" xmlns="http://www.w3.org/2000/svg">
<rect width="72" height="14.6422" rx="3" fill="#FACC15"/>
<path d="M16.2492 5.63636H16.7776V8.52557C16.7776 8.82386 16.7073 9.0902 16.5667 9.32457C16.4275 9.55753 16.2308 9.74148 15.9765 9.87642C15.7222 10.0099 15.4239 10.0767 15.0816 10.0767C14.7393 10.0767 14.441 10.0099 14.1867 9.87642C13.9325 9.74148 13.735 9.55753 13.5944 9.32457C13.4552 9.0902 13.3856 8.82386 13.3856 8.52557V5.63636H13.914V8.48295C13.914 8.69602 13.9609 8.88565 14.0546 9.05185C14.1484 9.21662 14.2819 9.34659 14.4552 9.44176C14.6299 9.53551 14.8387 9.58239 15.0816 9.58239C15.3245 9.58239 15.5333 9.53551 15.708 9.44176C15.8827 9.34659 16.0163 9.21662 16.1086 9.05185C16.2023 8.88565 16.2492 8.69602 16.2492 8.48295V5.63636ZM18.2675 8.03125V10H17.7647V6.72727H18.2505V7.23864H18.2931C18.3698 7.07244 18.4863 6.93892 18.6425 6.83807C18.7988 6.7358 19.0005 6.68466 19.2476 6.68466C19.4692 6.68466 19.6631 6.73011 19.8293 6.82102C19.9955 6.91051 20.1248 7.04688 20.2171 7.23011C20.3094 7.41193 20.3556 7.64205 20.3556 7.92045V10H19.8527V7.95455C19.8527 7.69744 19.786 7.49716 19.6525 7.35369C19.5189 7.20881 19.3357 7.13636 19.1027 7.13636C18.9422 7.13636 18.7988 7.17116 18.6723 7.24077C18.5473 7.31037 18.4486 7.41193 18.3762 7.54545C18.3037 7.67898 18.2675 7.84091 18.2675 8.03125ZM22.5102 10.0682C22.2375 10.0682 21.9967 9.99929 21.7879 9.86151C21.5791 9.7223 21.4158 9.52628 21.2979 9.27344C21.18 9.01918 21.121 8.71875 21.121 8.37216C21.121 8.02841 21.18 7.73011 21.2979 7.47727C21.4158 7.22443 21.5798 7.02912 21.7901 6.89134C22.0003 6.75355 22.2432 6.68466 22.5188 6.68466C22.7318 6.68466 22.9001 6.72017 23.0237 6.79119C23.1487 6.8608 23.2439 6.94034 23.3092 7.02983C23.376 7.1179 23.4278 7.19034 23.4648 7.24716H23.5074V5.63636H24.0102V10H23.5244V9.49716H23.4648C23.4278 9.55682 23.3753 9.6321 23.3071 9.72301C23.2389 9.8125 23.1416 9.89276 23.0152 9.96378C22.8888 10.0334 22.7205 10.0682 22.5102 10.0682ZM22.5784 9.61648C22.7801 9.61648 22.9506 9.56392 23.0898 9.45881C23.229 9.35227 23.3348 9.20526 23.4072 9.01776C23.4797 8.82884 23.5159 8.6108 23.5159 8.36364C23.5159 8.11932 23.4804 7.90554 23.4094 7.7223C23.3384 7.53764 23.2332 7.39418 23.094 7.2919C22.9548 7.18821 22.783 7.13636 22.5784 7.13636C22.3653 7.13636 22.1878 7.19105 22.0457 7.30043C21.9051 7.40838 21.7993 7.5554 21.7283 7.74148C21.6587 7.92614 21.6239 8.13352 21.6239 8.36364C21.6239 8.59659 21.6594 8.80824 21.7304 8.99858C21.8028 9.1875 21.9094 9.33807 22.05 9.45028C22.192 9.56108 22.3682 9.61648 22.5784 9.61648ZM26.3732 10.0682C26.0578 10.0682 25.7858 9.99858 25.5571 9.85938C25.3298 9.71875 25.1544 9.52273 25.0308 9.27131C24.9087 9.01847 24.8476 8.72443 24.8476 8.3892C24.8476 8.05398 24.9087 7.75852 25.0308 7.50284C25.1544 7.24574 25.3263 7.04545 25.5465 6.90199C25.768 6.7571 26.0266 6.68466 26.322 6.68466C26.4925 6.68466 26.6608 6.71307 26.827 6.76989C26.9932 6.8267 27.1445 6.91903 27.2808 7.04688C27.4172 7.1733 27.5259 7.34091 27.6068 7.54972C27.6878 7.75852 27.7283 8.01562 27.7283 8.32102V8.53409H25.2055V8.09943H27.2169C27.2169 7.91477 27.18 7.75 27.1061 7.60511C27.0337 7.46023 26.93 7.34588 26.795 7.26207C26.6615 7.17827 26.5038 7.13636 26.322 7.13636C26.1217 7.13636 25.9484 7.18608 25.8021 7.28551C25.6572 7.38352 25.5457 7.51136 25.4676 7.66903C25.3895 7.8267 25.3504 7.99574 25.3504 8.17614V8.46591C25.3504 8.71307 25.393 8.92259 25.4783 9.09446C25.5649 9.26491 25.6849 9.39489 25.8384 9.48438C25.9918 9.57244 26.17 9.61648 26.3732 9.61648C26.5053 9.61648 26.6246 9.59801 26.7311 9.56108C26.8391 9.52273 26.9321 9.46591 27.0102 9.39062C27.0884 9.31392 27.1487 9.21875 27.1913 9.10511L27.6771 9.24148C27.626 9.40625 27.5401 9.55114 27.4193 9.67614C27.2986 9.79972 27.1494 9.89631 26.9719 9.96591C26.7943 10.0341 26.5947 10.0682 26.3732 10.0682ZM28.4932 10V6.72727H28.979V7.22159H29.0131C29.0727 7.05966 29.1807 6.92827 29.3369 6.82741C29.4932 6.72656 29.6693 6.67614 29.8653 6.67614C29.9023 6.67614 29.9484 6.67685 30.0038 6.67827C30.0592 6.67969 30.1011 6.68182 30.1296 6.68466V7.19602C30.1125 7.19176 30.0734 7.18537 30.0124 7.17685C29.9527 7.1669 29.8895 7.16193 29.8227 7.16193C29.6636 7.16193 29.5216 7.19531 29.3966 7.26207C29.273 7.32741 29.175 7.41832 29.1026 7.5348C29.0315 7.64986 28.996 7.78125 28.996 7.92898V10H28.4932ZM32.4813 5.63636H33.112L34.5949 9.25852H34.6461L36.129 5.63636H36.7597V10H36.2654V6.68466H36.2228L34.8591 10H34.3819L33.0182 6.68466H32.9756V10H32.4813V5.63636ZM38.7141 10.0767C38.5067 10.0767 38.3185 10.0376 38.1494 9.95952C37.9804 9.87997 37.8462 9.76562 37.7467 9.61648C37.6473 9.46591 37.5976 9.28409 37.5976 9.07102C37.5976 8.88352 37.6345 8.73153 37.7084 8.61506C37.7822 8.49716 37.881 8.40483 38.0045 8.33807C38.1281 8.27131 38.2645 8.22159 38.4136 8.18892C38.5642 8.15483 38.7155 8.12784 38.8675 8.10795C39.0663 8.08239 39.2276 8.06321 39.3511 8.05043C39.4761 8.03622 39.567 8.01278 39.6239 7.98011C39.6821 7.94744 39.7112 7.89062 39.7112 7.80966V7.79261C39.7112 7.58239 39.6537 7.41903 39.5386 7.30256C39.425 7.18608 39.2524 7.12784 39.0209 7.12784C38.7808 7.12784 38.5926 7.1804 38.4563 7.28551C38.3199 7.39062 38.224 7.50284 38.1686 7.62216L37.6913 7.4517C37.7766 7.25284 37.8902 7.09801 38.0322 6.98722C38.1757 6.875 38.332 6.79687 38.501 6.75284C38.6715 6.70739 38.8391 6.68466 39.0038 6.68466C39.109 6.68466 39.2297 6.69744 39.3661 6.72301C39.5038 6.74716 39.6367 6.79759 39.7645 6.87429C39.8938 6.95099 40.001 7.06676 40.0862 7.22159C40.1715 7.37642 40.2141 7.58381 40.2141 7.84375V10H39.7112V9.55682H39.6857C39.6516 9.62784 39.5947 9.70384 39.5152 9.7848C39.4357 9.86577 39.3298 9.93466 39.1977 9.99148C39.0656 10.0483 38.9044 10.0767 38.7141 10.0767ZM38.7908 9.625C38.9896 9.625 39.1572 9.58594 39.2936 9.50781C39.4314 9.42969 39.5351 9.32884 39.6047 9.20526C39.6757 9.08168 39.7112 8.9517 39.7112 8.81534V8.35511C39.6899 8.38068 39.643 8.40412 39.5706 8.42543C39.4996 8.44531 39.4172 8.46307 39.3234 8.47869C39.2311 8.4929 39.1409 8.50568 39.0528 8.51705C38.9662 8.52699 38.8959 8.53551 38.8419 8.54261C38.7112 8.55966 38.5891 8.58736 38.4754 8.62571C38.3632 8.66264 38.2723 8.71875 38.2027 8.79403C38.1345 8.8679 38.1004 8.96875 38.1004 9.09659C38.1004 9.27131 38.1651 9.40341 38.2943 9.4929C38.425 9.58097 38.5905 9.625 38.7908 9.625ZM41.1319 10V6.72727H41.6347V10H41.1319ZM41.3875 6.18182C41.2895 6.18182 41.205 6.14844 41.134 6.08168C41.0644 6.01491 41.0296 5.93466 41.0296 5.84091C41.0296 5.74716 41.0644 5.6669 41.134 5.60014C41.205 5.53338 41.2895 5.5 41.3875 5.5C41.4856 5.5 41.5694 5.53338 41.639 5.60014C41.71 5.6669 41.7455 5.74716 41.7455 5.84091C41.7455 5.93466 41.71 6.01491 41.639 6.08168C41.5694 6.14844 41.4856 6.18182 41.3875 6.18182ZM43.0585 8.03125V10H42.5557V6.72727H43.0415V7.23864H43.0841C43.1608 7.07244 43.2773 6.93892 43.4335 6.83807C43.5898 6.7358 43.7915 6.68466 44.0386 6.68466C44.2602 6.68466 44.4541 6.73011 44.6203 6.82102C44.7865 6.91051 44.9158 7.04688 45.0081 7.23011C45.1004 7.41193 45.1466 7.64205 45.1466 7.92045V10H44.6438V7.95455C44.6438 7.69744 44.577 7.49716 44.4435 7.35369C44.3099 7.20881 44.1267 7.13636 43.8938 7.13636C43.7332 7.13636 43.5898 7.17116 43.4634 7.24077C43.3384 7.31037 43.2396 7.41193 43.1672 7.54545C43.0947 7.67898 43.0585 7.84091 43.0585 8.03125ZM47.4887 6.72727V7.15341H45.7927V6.72727H47.4887ZM46.287 5.94318H46.7899V9.0625C46.7899 9.20455 46.8105 9.31108 46.8517 9.3821C46.8943 9.4517 46.9483 9.49858 47.0136 9.52273C47.0804 9.54545 47.1507 9.55682 47.2245 9.55682C47.2799 9.55682 47.3254 9.55398 47.3609 9.5483C47.3964 9.54119 47.4248 9.53551 47.4461 9.53125L47.5484 9.98295C47.5143 9.99574 47.4667 10.0085 47.4057 10.0213C47.3446 10.0355 47.2672 10.0426 47.1734 10.0426C47.0314 10.0426 46.8922 10.0121 46.7558 9.95099C46.6208 9.88991 46.5086 9.79688 46.4191 9.67188C46.3311 9.54688 46.287 9.3892 46.287 9.19886V5.94318ZM49.5821 10.0682C49.2668 10.0682 48.9948 9.99858 48.7661 9.85938C48.5388 9.71875 48.3634 9.52273 48.2398 9.27131C48.1177 9.01847 48.0566 8.72443 48.0566 8.3892C48.0566 8.05398 48.1177 7.75852 48.2398 7.50284C48.3634 7.24574 48.5353 7.04545 48.7554 6.90199C48.977 6.7571 49.2356 6.68466 49.531 6.68466C49.7015 6.68466 49.8698 6.71307 50.036 6.76989C50.2022 6.8267 50.3534 6.91903 50.4898 7.04688C50.6262 7.1733 50.7348 7.34091 50.8158 7.54972C50.8968 7.75852 50.9373 8.01562 50.9373 8.32102V8.53409H48.4145V8.09943H50.4259C50.4259 7.91477 50.389 7.75 50.3151 7.60511C50.2427 7.46023 50.139 7.34588 50.004 7.26207C49.8705 7.17827 49.7128 7.13636 49.531 7.13636C49.3307 7.13636 49.1574 7.18608 49.0111 7.28551C48.8662 7.38352 48.7547 7.51136 48.6766 7.66903C48.5985 7.8267 48.5594 7.99574 48.5594 8.17614V8.46591C48.5594 8.71307 48.602 8.92259 48.6873 9.09446C48.7739 9.26491 48.8939 9.39489 49.0473 9.48438C49.2008 9.57244 49.379 9.61648 49.5821 9.61648C49.7142 9.61648 49.8336 9.59801 49.9401 9.56108C50.0481 9.52273 50.1411 9.46591 50.2192 9.39062C50.2973 9.31392 50.3577 9.21875 50.4003 9.10511L50.8861 9.24148C50.835 9.40625 50.749 9.55114 50.6283 9.67614C50.5076 9.79972 50.3584 9.89631 50.1809 9.96591C50.0033 10.0341 49.8037 10.0682 49.5821 10.0682ZM52.205 8.03125V10H51.7022V6.72727H52.188V7.23864H52.2306C52.3073 7.07244 52.4238 6.93892 52.58 6.83807C52.7363 6.7358 52.938 6.68466 53.1851 6.68466C53.4067 6.68466 53.6006 6.73011 53.7668 6.82102C53.933 6.91051 54.0623 7.04688 54.1546 7.23011C54.2469 7.41193 54.2931 7.64205 54.2931 7.92045V10H53.7902V7.95455C53.7902 7.69744 53.7235 7.49716 53.59 7.35369C53.4564 7.20881 53.2732 7.13636 53.0402 7.13636C52.8797 7.13636 52.7363 7.17116 52.6098 7.24077C52.4848 7.31037 52.3861 7.41193 52.3137 7.54545C52.2412 7.67898 52.205 7.84091 52.205 8.03125ZM56.175 10.0767C55.9676 10.0767 55.7794 10.0376 55.6104 9.95952C55.4413 9.87997 55.3071 9.76562 55.2077 9.61648C55.1082 9.46591 55.0585 9.28409 55.0585 9.07102C55.0585 8.88352 55.0955 8.73153 55.1693 8.61506C55.2432 8.49716 55.3419 8.40483 55.4655 8.33807C55.5891 8.27131 55.7254 8.22159 55.8746 8.18892C56.0251 8.15483 56.1764 8.12784 56.3284 8.10795C56.5273 8.08239 56.6885 8.06321 56.8121 8.05043C56.9371 8.03622 57.028 8.01278 57.0848 7.98011C57.143 7.94744 57.1722 7.89062 57.1722 7.80966V7.79261C57.1722 7.58239 57.1146 7.41903 56.9996 7.30256C56.8859 7.18608 56.7134 7.12784 56.4818 7.12784C56.2418 7.12784 56.0536 7.1804 55.9172 7.28551C55.7808 7.39062 55.6849 7.50284 55.6295 7.62216L55.1523 7.4517C55.2375 7.25284 55.3511 7.09801 55.4932 6.98722C55.6367 6.875 55.7929 6.79687 55.9619 6.75284C56.1324 6.70739 56.3 6.68466 56.4648 6.68466C56.5699 6.68466 56.6906 6.69744 56.827 6.72301C56.9648 6.74716 57.0976 6.79759 57.2254 6.87429C57.3547 6.95099 57.4619 7.06676 57.5472 7.22159C57.6324 7.37642 57.675 7.58381 57.675 7.84375V10H57.1722V9.55682H57.1466C57.1125 9.62784 57.0557 9.70384 56.9761 9.7848C56.8966 9.86577 56.7908 9.93466 56.6587 9.99148C56.5266 10.0483 56.3653 10.0767 56.175 10.0767ZM56.2517 9.625C56.4506 9.625 56.6182 9.58594 56.7546 9.50781C56.8923 9.42969 56.996 9.32884 57.0656 9.20526C57.1367 9.08168 57.1722 8.9517 57.1722 8.81534V8.35511C57.1509 8.38068 57.104 8.40412 57.0315 8.42543C56.9605 8.44531 56.8781 8.46307 56.7844 8.47869C56.692 8.4929 56.6019 8.50568 56.5138 8.51705C56.4271 8.52699 56.3568 8.53551 56.3028 8.54261C56.1722 8.55966 56.05 8.58736 55.9364 8.62571C55.8242 8.66264 55.7332 8.71875 55.6636 8.79403C55.5955 8.8679 55.5614 8.96875 55.5614 9.09659C55.5614 9.27131 55.626 9.40341 55.7553 9.4929C55.8859 9.58097 56.0514 9.625 56.2517 9.625ZM59.0956 8.03125V10H58.5928V6.72727H59.0786V7.23864H59.1212C59.1979 7.07244 59.3144 6.93892 59.4706 6.83807C59.6269 6.7358 59.8286 6.68466 60.0758 6.68466C60.2973 6.68466 60.4912 6.73011 60.6574 6.82102C60.8236 6.91051 60.9529 7.04688 61.0452 7.23011C61.1375 7.41193 61.1837 7.64205 61.1837 7.92045V10H60.6809V7.95455C60.6809 7.69744 60.6141 7.49716 60.4806 7.35369C60.3471 7.20881 60.1638 7.13636 59.9309 7.13636C59.7704 7.13636 59.6269 7.17116 59.5005 7.24077C59.3755 7.31037 59.2767 7.41193 59.2043 7.54545C59.1319 7.67898 59.0956 7.84091 59.0956 8.03125ZM63.4321 10.0682C63.1253 10.0682 62.8611 9.99574 62.6395 9.85085C62.4179 9.70597 62.2474 9.50639 62.1281 9.25213C62.0088 8.99787 61.9492 8.70739 61.9492 8.38068C61.9492 8.0483 62.0102 7.75497 62.1324 7.50071C62.256 7.24503 62.4278 7.04545 62.648 6.90199C62.8696 6.7571 63.1281 6.68466 63.4236 6.68466C63.6537 6.68466 63.8611 6.72727 64.0457 6.8125C64.2304 6.89773 64.3817 7.01705 64.4996 7.17045C64.6175 7.32386 64.6906 7.50284 64.719 7.70739H64.2162C64.1778 7.55824 64.0926 7.42614 63.9605 7.31108C63.8298 7.1946 63.6537 7.13636 63.4321 7.13636C63.2361 7.13636 63.0642 7.1875 62.9165 7.28977C62.7702 7.39062 62.6558 7.53338 62.5734 7.71804C62.4925 7.90128 62.452 8.11648 62.452 8.36364C62.452 8.61648 62.4918 8.83665 62.5713 9.02415C62.6523 9.21165 62.7659 9.35724 62.9122 9.46094C63.0599 9.56463 63.2332 9.61648 63.4321 9.61648C63.5628 9.61648 63.6814 9.59375 63.7879 9.5483C63.8945 9.50284 63.9847 9.4375 64.0585 9.35227C64.1324 9.26705 64.1849 9.16477 64.2162 9.04545H64.719C64.6906 9.23864 64.6203 9.41264 64.5081 9.56747C64.3973 9.72088 64.2503 9.84304 64.0671 9.93395C63.8852 10.0234 63.6736 10.0682 63.4321 10.0682ZM66.8263 10.0682C66.5109 10.0682 66.2389 9.99858 66.0102 9.85938C65.783 9.71875 65.6075 9.52273 65.484 9.27131C65.3618 9.01847 65.3007 8.72443 65.3007 8.3892C65.3007 8.05398 65.3618 7.75852 65.484 7.50284C65.6075 7.24574 65.7794 7.04545 65.9996 6.90199C66.2212 6.7571 66.4797 6.68466 66.7751 6.68466C66.9456 6.68466 67.1139 6.71307 67.2801 6.76989C67.4463 6.8267 67.5976 6.91903 67.734 7.04688C67.8703 7.1733 67.979 7.34091 68.0599 7.54972C68.1409 7.75852 68.1814 8.01562 68.1814 8.32102V8.53409H65.6587V8.09943H67.67C67.67 7.91477 67.6331 7.75 67.5592 7.60511C67.4868 7.46023 67.3831 7.34588 67.2482 7.26207C67.1146 7.17827 66.957 7.13636 66.7751 7.13636C66.5749 7.13636 66.4016 7.18608 66.2553 7.28551C66.1104 7.38352 65.9989 7.51136 65.9207 7.66903C65.8426 7.8267 65.8036 7.99574 65.8036 8.17614V8.46591C65.8036 8.71307 65.8462 8.92259 65.9314 9.09446C66.018 9.26491 66.1381 9.39489 66.2915 9.48438C66.4449 9.57244 66.6232 9.61648 66.8263 9.61648C66.9584 9.61648 67.0777 9.59801 67.1842 9.56108C67.2922 9.52273 67.3852 9.46591 67.4634 9.39062C67.5415 9.31392 67.6019 9.21875 67.6445 9.10511L68.1303 9.24148C68.0791 9.40625 67.9932 9.55114 67.8724 9.67614C67.7517 9.79972 67.6026 9.89631 67.425 9.96591C67.2474 10.0341 67.0479 10.0682 66.8263 10.0682Z" fill="black"/>
<path d="M6.9085 6.90192C6.85356 7.00919 6.79026 7.10632 6.7186 7.1933C6.64695 7.28028 6.56573 7.35856 6.47497 7.42815L6.6577 7.96742L6.23492 8.17617L6.05219 7.64125C5.95665 7.67024 5.85394 7.68474 5.74406 7.68474C5.63419 7.68474 5.53148 7.67024 5.43594 7.64125L5.25321 8.17617L4.83043 7.96742L5.01316 7.42815C4.92478 7.36146 4.84476 7.28463 4.77311 7.19765C4.70145 7.11067 4.63696 7.01209 4.57963 6.90192L4.13536 7.12372L3.96338 6.61054L4.40407 6.38874C4.38019 6.27276 4.36824 6.14809 4.36824 6.01472C4.36824 5.88135 4.38019 5.75668 4.40407 5.64071L3.96338 5.41891L4.13536 4.90573L4.57963 5.12753C4.68951 4.91008 4.83402 4.73467 5.01316 4.6013L4.83043 4.06202L5.25321 3.85327L5.43594 4.3882C5.53148 4.3592 5.63419 4.34471 5.74406 4.34471C5.85394 4.34471 5.95665 4.3592 6.05219 4.3882L6.23492 3.85327L6.6577 4.06202L6.47497 4.6013C6.65411 4.73467 6.79862 4.91008 6.9085 5.12753L7.35277 4.90573L7.52475 5.41891L7.08406 5.64071C7.10794 5.75668 7.11989 5.88135 7.11989 6.01472C7.11989 6.14809 7.10794 6.27276 7.08406 6.38874L7.52475 6.61054L7.35277 7.12372L6.9085 6.90192ZM5.74406 7.12807C5.87066 7.12807 5.98889 7.09907 6.09877 7.04109C6.20864 6.9831 6.30657 6.90337 6.39256 6.80189C6.47855 6.70041 6.54424 6.58299 6.58962 6.44962C6.635 6.31625 6.65889 6.17129 6.66128 6.01472C6.66128 5.86106 6.63739 5.71754 6.58962 5.58417C6.54185 5.4508 6.47616 5.33193 6.39256 5.22755C6.30896 5.12318 6.21223 5.04345 6.10235 4.98836C5.99248 4.93327 5.87305 4.90428 5.74406 4.90138C5.61747 4.90138 5.49923 4.93037 5.38936 4.98836C5.27949 5.04635 5.18155 5.12608 5.09556 5.22755C5.00958 5.32903 4.94389 5.44645 4.89851 5.57982C4.85312 5.71319 4.82924 5.85816 4.82685 6.01472C4.82685 6.16839 4.85074 6.3119 4.89851 6.44527C4.94628 6.57864 5.01196 6.69752 5.09556 6.80189C5.17917 6.90627 5.2759 6.986 5.38578 7.04109C5.49565 7.09617 5.61508 7.12517 5.74406 7.12807ZM10.7887 9.07642C10.7887 9.23588 10.772 9.39679 10.7386 9.55915L11.2294 9.8027L11.0575 10.3202L10.563 10.0723C10.4221 10.3565 10.2358 10.5826 10.0041 10.7508L10.2083 11.3466L9.78196 11.5597L9.58131 10.9639C9.44755 11.0045 9.31499 11.0248 9.18362 11.0248C9.05224 11.0248 8.91968 11.0045 8.78592 10.9639L8.58528 11.5597L8.15892 11.3466L8.36314 10.7508C8.12906 10.5826 7.94275 10.3565 7.80421 10.0723L7.30978 10.3202L7.1378 9.8027L7.62865 9.55915C7.59521 9.39679 7.57849 9.23588 7.57849 9.07642C7.57849 8.91695 7.59521 8.75604 7.62865 8.59368L7.1378 8.35013L7.30978 7.8326L7.80421 8.0805C7.94275 7.79926 8.12906 7.57311 8.36314 7.40205L8.15892 6.80189L8.58528 6.59314L8.78592 7.18895C8.91968 7.14836 9.05224 7.12807 9.18362 7.12807C9.31499 7.12807 9.44755 7.14836 9.58131 7.18895L9.78196 6.59314L10.2083 6.80189L10.0041 7.40205C10.2358 7.57311 10.4221 7.79926 10.563 8.0805L11.0575 7.8326L11.2294 8.35013L10.7386 8.59368C10.772 8.75604 10.7887 8.91695 10.7887 9.07642ZM9.18362 10.4681C9.34126 10.4681 9.48935 10.4319 9.62789 10.3594C9.76643 10.2869 9.88705 10.1883 9.98976 10.0636C10.0925 9.93897 10.1749 9.7911 10.237 9.62004C10.2991 9.44898 10.3301 9.26777 10.3301 9.07642C10.3301 8.88506 10.3003 8.7053 10.2406 8.53714C10.1808 8.36898 10.0984 8.22256 9.99334 8.09789C9.88825 7.97322 9.76643 7.87319 9.62789 7.79781C9.48935 7.72243 9.34126 7.68474 9.18362 7.68474C9.02597 7.68474 8.87788 7.72098 8.73934 7.79346C8.6008 7.86595 8.47899 7.96597 8.37389 8.09354C8.26879 8.22111 8.18639 8.36898 8.12667 8.53714C8.06696 8.7053 8.0371 8.88506 8.0371 9.07642C8.0371 9.26777 8.06696 9.44753 8.12667 9.61569C8.18639 9.78385 8.2676 9.93172 8.37031 10.0593C8.47301 10.1869 8.59483 10.2869 8.73576 10.3594C8.87668 10.4319 9.02597 10.4681 9.18362 10.4681Z" fill="black"/>
</svg>
